<svg width="800" height="450" xmlns="http://www.w3.org/2000/svg">
  <defs>
    <linearGradient id="bgGrad" x1="0%" y1="0%" x2="100%" y2="100%">
      <stop offset="0%" style="stop-color:#a855f7;stop-opacity:0.95" />
      <stop offset="100%" style="stop-color:#9333ea;stop-opacity:1" />
    </linearGradient>
  </defs>
  <rect width="100%" height="100%" fill="url(#bgGrad)"/>

  <!-- Editor mockup -->
  <rect x="50" y="50" width="700" height="350" rx="12" fill="#faf5ff" fill-opacity="0.1" stroke="#faf5ff" stroke-opacity="0.2"/>

  <!-- Toolbar -->
  <rect x="50" y="50" width="700" height="45" rx="12" fill="#faf5ff" fill-opacity="0.08"/>
  <rect x="70" y="62" width="24" height="20" rx="4" fill="#faf5ff" fill-opacity="0.3"/>
  <rect x="100" y="62" width="24" height="20" rx="4" fill="#faf5ff" fill-opacity="0.3"/>
  <rect x="130" y="62" width="24" height="20" rx="4" fill="#faf5ff" fill-opacity="0.3"/>
  <rect x="160" y="62" width="24" height="20" rx="4" fill="#faf5ff" fill-opacity="0.3"/>
  <rect x="200" y="62" width="60" height="20" rx="4" fill="#22c55e" fill-opacity="0.8"/>
  <text x="230" y="76" font-family="system-ui" font-size="10" fill="#fff" text-anchor="middle">AI</text>

  <!-- Text content -->
  <rect x="70" y="120" width="400" height="18" rx="4" fill="#faf5ff" fill-opacity="0.25"/>
  <rect x="70" y="150" width="550" height="14" rx="4" fill="#faf5ff" fill-opacity="0.15"/>
  <rect x="70" y="174" width="480" height="14" rx="4" fill="#faf5ff" fill-opacity="0.15"/>
  <rect x="70" y="198" width="520" height="14" rx="4" fill="#faf5ff" fill-opacity="0.15"/>

  <!-- AI suggestion box -->
  <rect x="70" y="230" width="500" height="80" rx="8" fill="#faf5ff" fill-opacity="0.12" stroke="#faf5ff" stroke-opacity="0.3" stroke-dasharray="5,5"/>
  <circle cx="95" cy="255" r="12" fill="#a855f7" fill-opacity="0.8"/>
  <text x="95" y="259" font-family="system-ui" font-size="10" fill="#fff" text-anchor="middle">AI</text>
  <rect x="120" y="248" width="180" height="14" rx="4" fill="#faf5ff" fill-opacity="0.3"/>
  <rect x="120" y="272" width="400" height="12" rx="4" fill="#faf5ff" fill-opacity="0.2"/>
  <rect x="120" y="290" width="320" height="12" rx="4" fill="#faf5ff" fill-opacity="0.2"/>

  <!-- More text -->
  <rect x="70" y="330" width="450" height="14" rx="4" fill="#faf5ff" fill-opacity="0.15"/>
  <rect x="70" y="354" width="380" height="14" rx="4" fill="#faf5ff" fill-opacity="0.15"/>

  <text x="400" y="430" font-family="system-ui, -apple-system, sans-serif" font-size="22" font-weight="600" fill="#faf5ff" text-anchor="middle">AI Note Taking Editor</text>
</svg>
