<svg width="400" height="300" xmlns="http://www.w3.org/2000/svg">
  <defs>
    <linearGradient id="bgGrad" x1="0%" y1="0%" x2="100%" y2="100%">
      <stop offset="0%" style="stop-color:#22c55e;stop-opacity:0.9" />
      <stop offset="100%" style="stop-color:#16a34a;stop-opacity:1" />
    </linearGradient>
  </defs>
  <rect width="100%" height="100%" fill="url(#bgGrad)"/>
  <g transform="translate(150, 80) scale(4)">
    <path d="M4 1h16c1.1 0 2 .9 2 2v4c0 1.1-.9 2-2 2H4c-1.1 0-2-.9-2-2V3c0-1.1.9-2 2-2zm0 8h16c1.1 0 2 .9 2 2v4c0 1.1-.9 2-2 2H4c-1.1 0-2-.9-2-2v-4c0-1.1.9-2 2-2zm0 8h16c1.1 0 2 .9 2 2v4c0 1.1-.9 2-2 2H4c-1.1 0-2-.9-2-2v-4c0-1.1.9-2 2-2zM9 5H7v2h2V5zm0 8H7v2h2v-2zm0 8H7v2h2v-2z" fill="#f0fdf4" opacity="0.9"/>
  </g>
  <text x="50%" y="230" font-family="system-ui, -apple-system, sans-serif" font-size="18" font-weight="500" fill="#f0fdf4" text-anchor="middle" opacity="0.9">Infrastructure Project</text>
</svg>
