<svg width="400" height="300" xmlns="http://www.w3.org/2000/svg">
  <defs>
    <linearGradient id="bgGrad" x1="0%" y1="0%" x2="100%" y2="100%">
      <stop offset="0%" style="stop-color:#a855f7;stop-opacity:0.9" />
      <stop offset="100%" style="stop-color:#9333ea;stop-opacity:1" />
    </linearGradient>
  </defs>
  <rect width="100%" height="100%" fill="url(#bgGrad)"/>
  <g transform="translate(150, 80) scale(4)">
    <path d="M21.33 12.91c.09 1.55-.62 3.04-1.89 3.95l.77 1.49c.23.45.26.98.06 1.45-.19.47-.58.84-1.06 1l-.79.26a1.84 1.84 0 0 1-1.67-.28l-1.29-.97c-.51.05-1.02.05-1.53 0l-1.29.97c-.41.31-.93.42-1.43.31-.5-.11-.93-.41-1.2-.83l-.51-.78c-.69.02-1.38-.09-2.03-.32l-.79.26c-.47.16-1 .13-1.45-.06-.45-.19-.82-.56-1.02-1.03l-.31-.78c-.2-.49-.16-1.04.11-1.5l.77-1.49C2.35 14.55 1.76 13.24 1.72 11.84c-.04-1.4.48-2.77 1.46-3.82l-.46-1.57c-.12-.43-.05-.88.19-1.27.24-.39.62-.67 1.07-.77l.79-.18c.49-.11 1 0 1.42.31l1.29.97c.51-.05 1.02-.05 1.53 0l1.29-.97c.34-.26.77-.37 1.2-.31.43.06.82.28 1.08.61l.57.72c.4-.06.82-.09 1.23-.09.42 0 .84.03 1.25.1l.57-.73c.26-.33.65-.55 1.08-.61.43-.06.86.05 1.2.31l1.29.97c.51-.05 1.02-.05 1.53 0l1.29-.97c.42-.31.93-.42 1.42-.31l.79.18c.45.1.83.38 1.07.77.24.39.31.84.19 1.27l-.46 1.57c.97 1.05 1.5 2.42 1.46 3.82zM12 9c-1.66 0-3 1.34-3 3s1.34 3 3 3 3-1.34 3-3-1.34-3-3-3z" fill="#faf5ff" opacity="0.9"/>
  </g>
  <text x="50%" y="230" font-family="system-ui, -apple-system, sans-serif" font-size="18" font-weight="500" fill="#faf5ff" text-anchor="middle" opacity="0.9">AI Project</text>
</svg>
