<svg width="800" height="450" xmlns="http://www.w3.org/2000/svg">
  <defs>
    <linearGradient id="bgGrad" x1="0%" y1="0%" x2="100%" y2="100%">
      <stop offset="0%" style="stop-color:#0ea5e9;stop-opacity:0.95" />
      <stop offset="100%" style="stop-color:#0284c7;stop-opacity:1" />
    </linearGradient>
  </defs>
  <rect width="100%" height="100%" fill="url(#bgGrad)"/>

  <!-- Service cards grid -->
  <rect x="50" y="80" width="220" height="150" rx="12" fill="#e0f2fe" fill-opacity="0.15"/>
  <circle cx="100" cy="130" r="20" fill="#22c55e" fill-opacity="0.8"/>
  <rect x="70" y="170" width="120" height="16" rx="4" fill="#e0f2fe" fill-opacity="0.4"/>
  <rect x="70" y="195" width="80" height="12" rx="4" fill="#e0f2fe" fill-opacity="0.25"/>

  <rect x="290" y="80" width="220" height="150" rx="12" fill="#e0f2fe" fill-opacity="0.15"/>
  <circle cx="340" cy="130" r="20" fill="#22c55e" fill-opacity="0.8"/>
  <rect x="310" y="170" width="120" height="16" rx="4" fill="#e0f2fe" fill-opacity="0.4"/>
  <rect x="310" y="195" width="80" height="12" rx="4" fill="#e0f2fe" fill-opacity="0.25"/>

  <rect x="530" y="80" width="220" height="150" rx="12" fill="#e0f2fe" fill-opacity="0.15"/>
  <circle cx="580" cy="130" r="20" fill="#f97316" fill-opacity="0.8"/>
  <rect x="550" y="170" width="120" height="16" rx="4" fill="#e0f2fe" fill-opacity="0.4"/>
  <rect x="550" y="195" width="80" height="12" rx="4" fill="#e0f2fe" fill-opacity="0.25"/>

  <rect x="50" y="250" width="220" height="150" rx="12" fill="#e0f2fe" fill-opacity="0.15"/>
  <circle cx="100" cy="300" r="20" fill="#22c55e" fill-opacity="0.8"/>
  <rect x="70" y="340" width="120" height="16" rx="4" fill="#e0f2fe" fill-opacity="0.4"/>
  <rect x="70" y="365" width="80" height="12" rx="4" fill="#e0f2fe" fill-opacity="0.25"/>

  <rect x="290" y="250" width="220" height="150" rx="12" fill="#e0f2fe" fill-opacity="0.15"/>
  <circle cx="340" cy="300" r="20" fill="#22c55e" fill-opacity="0.8"/>
  <rect x="310" y="340" width="120" height="16" rx="4" fill="#e0f2fe" fill-opacity="0.4"/>
  <rect x="310" y="365" width="80" height="12" rx="4" fill="#e0f2fe" fill-opacity="0.25"/>

  <rect x="530" y="250" width="220" height="150" rx="12" fill="#e0f2fe" fill-opacity="0.15"/>
  <circle cx="580" cy="300" r="20" fill="#6b7280" fill-opacity="0.8"/>
  <rect x="550" y="340" width="120" height="16" rx="4" fill="#e0f2fe" fill-opacity="0.4"/>
  <rect x="550" y="365" width="80" height="12" rx="4" fill="#e0f2fe" fill-opacity="0.25"/>

  <text x="400" y="40" font-family="system-ui, -apple-system, sans-serif" font-size="24" font-weight="600" fill="#e0f2fe" text-anchor="middle">Services Management</text>
</svg>
